<svg width="229" height="19" viewBox="0 0 229 19" fill="none" xmlns="http://www.w3.org/2000/svg">
<path d="M0.917614 18V0.545454H11.7415V2.8125H3.55114V8.13068H10.9659V10.3892H3.55114V18H0.917614ZM30.142 9.27273C30.142 11.1364 29.8011 12.7386 29.1193 14.0795C28.4375 15.4148 27.5028 16.4432 26.3153 17.1648C25.1335 17.8807 23.7898 18.2386 22.2841 18.2386C20.7727 18.2386 19.4233 17.8807 18.2358 17.1648C17.054 16.4432 16.1222 15.4119 15.4403 14.071C14.7585 12.7301 14.4176 11.1307 14.4176 9.27273C14.4176 7.40909 14.7585 5.80966 15.4403 4.47443C16.1222 3.13352 17.054 2.10511 18.2358 1.3892C19.4233 0.667613 20.7727 0.306818 22.2841 0.306818C23.7898 0.306818 25.1335 0.667613 26.3153 1.3892C27.5028 2.10511 28.4375 3.13352 29.1193 4.47443C29.8011 5.80966 30.142 7.40909 30.142 9.27273ZM27.5341 9.27273C27.5341 7.85227 27.304 6.65625 26.8438 5.68466C26.3892 4.70739 25.7642 3.96875 24.9688 3.46875C24.179 2.96307 23.2841 2.71023 22.2841 2.71023C21.2784 2.71023 20.3807 2.96307 19.5909 3.46875C18.8011 3.96875 18.1761 4.70739 17.7159 5.68466C17.2614 6.65625 17.0341 7.85227 17.0341 9.27273C17.0341 10.6932 17.2614 11.892 17.7159 12.8693C18.1761 13.8409 18.8011 14.5795 19.5909 15.0852C20.3807 15.5852 21.2784 15.8352 22.2841 15.8352C23.2841 15.8352 24.179 15.5852 24.9688 15.0852C25.7642 14.5795 26.3892 13.8409 26.8438 12.8693C27.304 11.892 27.5341 10.6932 27.5341 9.27273ZM48.5874 9.27273C48.5874 11.1364 48.2464 12.7386 47.5646 14.0795C46.8828 15.4148 45.9482 16.4432 44.7607 17.1648C43.5788 17.8807 42.2351 18.2386 40.7294 18.2386C39.218 18.2386 37.8686 17.8807 36.6811 17.1648C35.4993 16.4432 34.5675 15.4119 33.8857 14.071C33.2038 12.7301 32.8629 11.1307 32.8629 9.27273C32.8629 7.40909 33.2038 5.80966 33.8857 4.47443C34.5675 3.13352 35.4993 2.10511 36.6811 1.3892C37.8686 0.667613 39.218 0.306818 40.7294 0.306818C42.2351 0.306818 43.5788 0.667613 44.7607 1.3892C45.9482 2.10511 46.8828 3.13352 47.5646 4.47443C48.2464 5.80966 48.5874 7.40909 48.5874 9.27273ZM45.9794 9.27273C45.9794 7.85227 45.7493 6.65625 45.2891 5.68466C44.8345 4.70739 44.2095 3.96875 43.4141 3.46875C42.6243 2.96307 41.7294 2.71023 40.7294 2.71023C39.7237 2.71023 38.826 2.96307 38.0362 3.46875C37.2464 3.96875 36.6214 4.70739 36.1612 5.68466C35.7067 6.65625 35.4794 7.85227 35.4794 9.27273C35.4794 10.6932 35.7067 11.892 36.1612 12.8693C36.6214 13.8409 37.2464 14.5795 38.0362 15.0852C38.826 15.5852 39.7237 15.8352 40.7294 15.8352C41.7294 15.8352 42.6243 15.5852 43.4141 15.0852C44.2095 14.5795 44.8345 13.8409 45.2891 12.8693C45.7493 11.892 45.9794 10.6932 45.9794 9.27273ZM50.2599 2.8125V0.545454H63.7685V2.8125H58.3224V18H55.6974V2.8125H50.2599ZM66.7536 18V0.545454H73.1456C74.3842 0.545454 75.4098 0.75 76.2223 1.15909C77.0348 1.5625 77.6428 2.1108 78.0462 2.80398C78.4496 3.49148 78.6513 4.26705 78.6513 5.13068C78.6513 5.85795 78.5178 6.47159 78.2507 6.97159C77.9837 7.46591 77.6257 7.86364 77.1768 8.16477C76.7337 8.46023 76.245 8.67614 75.7109 8.8125V8.98295C76.2905 9.01136 76.8558 9.19886 77.407 9.54545C77.9638 9.88636 78.424 10.3722 78.7876 11.0028C79.1513 11.6335 79.3331 12.4006 79.3331 13.304C79.3331 14.196 79.1229 14.9972 78.7024 15.7074C78.2876 16.4119 77.6456 16.9716 76.7763 17.3864C75.907 17.7955 74.7962 18 73.4439 18H66.7536ZM69.3871 15.7415H73.1882C74.4496 15.7415 75.353 15.4972 75.8984 15.0085C76.4439 14.5199 76.7166 13.9091 76.7166 13.1761C76.7166 12.625 76.5774 12.1193 76.299 11.6591C76.0206 11.1989 75.6229 10.8324 75.1058 10.5597C74.5945 10.2869 73.9865 10.1506 73.282 10.1506H69.3871V15.7415ZM69.3871 8.09659H72.9155C73.5064 8.09659 74.0376 7.98295 74.5092 7.75568C74.9865 7.52841 75.3643 7.21023 75.6428 6.80114C75.9268 6.38636 76.0689 5.89773 76.0689 5.33523C76.0689 4.61364 75.8161 4.00852 75.3104 3.51989C74.8047 3.03125 74.0291 2.78693 72.9837 2.78693H69.3871V8.09659ZM83.9311 18H81.1357L87.4169 0.545454H90.4595L96.7408 18H93.9453L89.0107 3.71591H88.8743L83.9311 18ZM84.3999 11.1648H93.468V13.3807H84.3999V11.1648ZM99.2614 18V0.545454H101.895V15.733H109.804V18H99.2614ZM112.808 18V0.545454H115.442V15.733H123.351V18H112.808Z" fill="#1F5059"/>
<path d="M136.184 18L131.258 0.545454H134.658L137.803 13.3722H137.965L141.323 0.545454H144.417L147.783 13.3807H147.937L151.082 0.545454H154.482L149.556 18H146.437L142.942 5.75284H142.806L139.303 18H136.184ZM156.675 18V0.545454H168.027V3.19602H159.837V7.93466H167.439V10.5852H159.837V15.3494H168.095V18H156.675ZM171.253 18V0.545454H182.605V3.19602H174.415V7.93466H182.017V10.5852H174.415V15.3494H182.673V18H171.253ZM185.831 18V0.545454H188.993V8.56534H189.206L196.016 0.545454H199.876L193.126 8.37784L199.936 18H196.135L190.928 10.517L188.993 12.8011V18H185.831ZM202.073 18V0.545454H205.235V15.3494H212.923V18H202.073ZM212.716 0.545454H216.287L220.557 8.26705H220.727L224.997 0.545454H228.568L222.219 11.4886V18H219.065V11.4886L212.716 0.545454Z" fill="#51A186"/>
</svg>
