<svg width="258" height="96" viewBox="0 0 258 96" fill="none" xmlns="http://www.w3.org/2000/svg">
<mask id="mask0_1_92" style="mask-type:luminance" maskUnits="userSpaceOnUse" x="0" y="0" width="258" height="96">
<path d="M0 85.5229L3.27196 6.29036e-06L257.498 9.72624L254.226 95.2491L0 85.5229Z" fill="white"/>
</mask>
<g mask="url(#mask0_1_92)">
<path d="M10.0808 11.7288C3.6326 16.0648 -1.7888 32.4572 6.77428 50.7559C13.7385 65.6341 9.75418 77.7944 8.02127 81.8187C7.73503 82.4847 8.32982 83.196 9.2022 83.2177C15.4599 83.3598 23.1678 85.4909 26.3511 86.455C27.238 86.7223 28.2298 86.4354 28.6717 85.7657C37.7094 72.0871 24.006 49.0129 20.7174 30.8557C17.3363 12.1776 25.4976 11.0251 25.5001 11.0233C38.0502 16.3409 51.2697 32.8668 57.8204 45.2337C62.5348 54.1379 69.0512 63.1501 76.1435 69.9921C93.16 85.7587 114.483 80.0544 114.483 80.0544C120.791 78.3973 125.461 75.7536 128.885 72.9902C145.879 77.0969 165.121 77.0861 179.541 71.2344C210.791 58.5573 222.644 63.9164 223.348 64.2604C230.185 68.2158 234.074 73.6261 235.791 76.522C236.346 77.4594 237.843 77.7151 238.783 77.0313C245.026 72.491 252.458 70.41 254.528 69.8921C254.846 69.8128 255.029 69.5436 254.953 69.2781C246.423 40.1677 198.481 59.8486 198.476 59.8504C198.476 59.8504 177.674 70.807 139.57 62.3448C138.842 62.1847 138.135 62.0118 137.439 61.8353C137.139 17.3387 107.962 23.9602 107.962 23.9602C92.9471 28.5403 90.4448 35.0425 90.4448 35.0425C85.6479 50.243 99.421 62.927 118.753 69.9494C118.166 71.6523 117.563 73.2164 116.999 74.5779C88.6524 79.0778 70.3408 22.3789 51.9722 7.251C33.6058 -7.87286 10.0881 11.7252 10.0808 11.7288ZM108.121 35.0574C119.441 37.8908 122.322 46.3845 121.87 55.2448C112.799 49.2374 109.326 41.3902 108.121 35.0574ZM116.991 74.5931C115.613 77.923 114.486 80.0467 114.484 80.0525L116.991 74.5931ZM10.0856 11.727C10.4396 11.4799 10.8021 11.2584 11.1641 11.0505C10.8019 11.2643 10.4417 11.4878 10.0856 11.727Z" fill="#93C2B4"/>
</g>
<mask id="mask1_1_92" style="mask-type:luminance" maskUnits="userSpaceOnUse" x="0" y="8" width="258" height="88">
<path d="M0 85.5229L2.94857 8.45285L257.174 18.1791L254.226 95.2491L0 85.5229Z" fill="white"/>
</mask>
<g mask="url(#mask1_1_92)">
<path d="M25.4968 11.0231C25.4968 11.0231 17.3331 12.1774 20.7166 30.8556C24.0051 49.0128 37.7085 72.087 28.6708 85.7656C28.2265 86.4353 27.2347 86.7221 26.3503 86.4529C23.167 85.4909 15.459 83.3598 9.19901 83.2156C8.32895 83.1959 7.73416 82.4846 8.0204 81.8186C9.75331 77.7943 13.7353 65.634 6.77348 50.7538C-1.78967 32.4571 3.62934 16.0647 10.0799 11.7287C10.0823 11.7288 10.0823 11.7288 10.0848 11.727C10.4408 11.4877 10.8011 11.2622 11.1633 11.0505C15.5168 8.56386 20.4518 8.88688 25.4968 11.0231ZM107.961 23.9601C107.961 23.9601 106.921 28.7598 108.12 35.0573C119.44 37.8907 122.321 46.3844 121.87 55.2447C125.873 57.8974 130.967 60.1892 137.438 61.8333C137.138 17.3386 107.961 23.9601 107.961 23.9601ZM118.75 69.9492C118.163 71.6521 117.56 73.2143 116.996 74.5777L116.998 74.5778L116.991 74.593C115.612 77.9229 114.485 80.0467 114.483 80.0524C120.79 78.3972 125.46 75.7535 128.882 72.9881C125.388 72.1445 121.992 71.1275 118.75 69.9492ZM198.473 59.8502C209.312 58.5084 217.43 60.84 223.345 64.2602C230.182 68.2137 234.071 73.626 235.787 76.5218C236.345 77.4593 237.84 77.7149 238.782 77.0312C245.023 72.4889 252.457 70.4099 254.527 69.89C254.843 69.8107 255.028 69.5435 254.95 69.2779C246.422 40.1676 198.478 59.8485 198.473 59.8502Z" fill="#056A4C" fill-opacity="0.47"/>
</g>
<path d="M107.961 23.9603C107.961 23.9603 106.921 28.76 108.12 35.0575C109.322 41.3902 112.797 49.2375 121.869 55.2449C125.873 57.8976 130.967 60.1894 137.437 61.8335C138.134 62.0119 138.84 62.1829 139.569 62.3449C177.671 70.8051 198.473 59.8504 198.473 59.8504C209.311 58.5086 217.43 60.8402 223.345 64.2604C222.64 63.9164 210.788 58.5573 179.539 71.2345C165.117 77.0861 145.877 77.097 128.882 72.9883C125.387 72.1446 121.991 71.1277 118.749 69.9494C99.4196 62.9252 85.6442 50.2411 90.4409 35.0425C90.4433 35.0426 92.9433 28.5404 107.961 23.9603ZM10.0794 11.7289C10.0817 11.729 10.0817 11.729 10.0842 11.7272C10.4382 11.4801 10.8007 11.2586 11.1627 11.0507C15.5138 8.56398 20.4513 8.88515 25.4963 11.0233C38.0488 16.3411 51.2682 32.8669 57.8167 45.2317C62.5334 54.1361 69.0474 63.1501 76.1421 69.9922C93.1561 85.7587 114.482 80.0526 114.482 80.0526L116.99 74.5932L116.998 74.578L116.995 74.5779C88.6486 79.0779 70.3369 22.3789 51.9683 7.25104C33.6044 -7.87274 10.0867 11.7253 10.0794 11.7289Z" fill="#93C2B4"/>
</svg>
